HIERARCHY
ROOT Hips
{
 OFFSET 0.000000 0.000000 0.000000
 CHANNELS 6 Xposition Yposition Zposition Yrotation Xrotation Zrotation
 JOINT Chest
 {
  OFFSET 0.000000 9.585900 0.002600
  CHANNELS 3 Yrotation Xrotation Zrotation
  JOINT Chest2
  {
   OFFSET 0.000000 9.601200 -0.005300
   CHANNELS 3 Yrotation Xrotation Zrotation
   JOINT Chest3
   {
    OFFSET 0.000000 9.561800 0.000000
    CHANNELS 3 Yrotation Xrotation Zrotation
    JOINT Chest4
    {
     OFFSET 0.000000 9.552100 0.000000
     CHANNELS 3 Yrotation Xrotation Zrotation
     JOINT Neck
     {
      OFFSET 0.000000 14.453000 0.000000
      CHANNELS 3 Yrotation Xrotation Zrotation
      JOINT Head
      {
       OFFSET 0.000000 8.936500 -0.011300
       CHANNELS 3 Yrotation Xrotation Zrotation
       End Site
       {
        OFFSET 0.000000 17.073600 -0.006000
       }
      }
     }
     JOINT RightCollar
     {
      OFFSET -2.921100 9.558500 0.000000
      CHANNELS 3 Yrotation Xrotation Zrotation
      JOINT RightShoulder
      {
       OFFSET -13.519700 0.000000 0.000000
       CHANNELS 3 Yrotation Xrotation Zrotation
       JOINT RightElbow
       {
        OFFSET 0.000000 -29.696600 0.000000
        CHANNELS 3 Yrotation Xrotation Zrotation
        JOINT RightWrist
        {
         OFFSET 0.000000 -24.004700 0.000000
         CHANNELS 3 Yrotation Xrotation Zrotation
         End Site
         {
          OFFSET 0.000000 -17.728500 0.000000
         }
        }
       }
      }
     }
     JOINT LeftCollar
     {
      OFFSET 2.921100 9.558500 0.000000
      CHANNELS 3 Yrotation Xrotation Zrotation
      JOINT LeftShoulder
      {
       OFFSET 13.519700 0.000000 0.000000
       CHANNELS 3 Yrotation Xrotation Zrotation
       JOINT LeftElbow
       {
        OFFSET 0.000000 -29.696600 0.000000
        CHANNELS 3 Yrotation Xrotation Zrotation
        JOINT LeftWrist
        {
         OFFSET 0.000000 -24.004700 0.000000
         CHANNELS 3 Yrotation Xrotation Zrotation
         End Site
         {
          OFFSET 0.000000 -17.728500 0.000000
         }
        }
       }
      }
     }
    }
   }
  }
 }
 JOINT RightHip
 {
  OFFSET -7.771700 -0.012900 -0.001300
  CHANNELS 3 Yrotation Xrotation Zrotation
  JOINT RightKnee
  {
   OFFSET 0.000000 -40.869800 0.001200
   CHANNELS 3 Yrotation Xrotation Zrotation
   JOINT RightAnkle
   {
    OFFSET 0.000000 -39.717900 0.002100
    CHANNELS 3 Yrotation Xrotation Zrotation
    JOINT RightToe
    {
     OFFSET 0.000000 -4.965400 11.033500
     CHANNELS 3 Yrotation Xrotation Zrotation
     End Site
     {
      OFFSET 0.000000 -1.423100 5.872300
     }
    }
   }
  }
 }
 JOINT LeftHip
 {
  OFFSET 7.771700 -0.012900 -0.001300
  CHANNELS 3 Yrotation Xrotation Zrotation
  JOINT LeftKnee
  {
   OFFSET 0.000000 -40.869800 0.001200
   CHANNELS 3 Yrotation Xrotation Zrotation
   JOINT LeftAnkle
   {
    OFFSET 0.000000 -39.717900 0.002100
    CHANNELS 3 Yrotation Xrotation Zrotation
    JOINT LeftToe
    {
     OFFSET 0.000000 -4.965400 11.033500
     CHANNELS 3 Yrotation Xrotation Zrotation
     End Site
     {
      OFFSET 0.000000 -1.423100 5.872300
     }
    }
   }
  }
 }
}
MOTION
Frames: 6
Frame Time: 0.008333
0.000000 85.388000 0.000000 0.000000 -5.767877 0.000000 0.000000 11.653817 0.000000 0.000000 -5.885947 0.000000 0.000000 -0.000000 0.000000 0.000000 -0.000000 0.000000 0.000000 12.528835 0.000000 0.000000 0.711642 0.000000 0.000000 -0.000000 0.000000 0.000000 0.000000 -90.000000 0.000000 -2.309062 0.000000 0.000000 2.309062 0.000000 0.000000 -0.000000 0.000000 0.000000 -0.000000 90.000000 0.000000 -2.309062 0.000000 0.000000 2.309062 0.000000 0.000000 8.520406 0.000000 0.000000 1.905762 0.000000 -0.000000 -4.658285 0.000000 0.000000 -0.000000 0.000000 0.000000 8.520406 0.000000 0.000000 1.905762 0.000000 -0.000000 -4.658285 0.000000 0.000000 -0.000000 0.000000
-8.656641 57.758394 43.642059 -176.820585 -41.468574 -3.005759 -1.317818 26.398547 3.804806 -0.307357 4.524377 0.484409 -0.480306 7.180261 0.762582 -1.194264 21.756859 2.196858 4.552275 11.123784 -2.107185 9.606289 -14.767180 -6.040937 3.808316 -2.770950 -2.116416 19.273485 -21.922525 -23.898658 -171.079162 -80.172481 -152.612398 19.580742 -18.891319 -57.596081 -7.866582 -3.699178 -2.166731 -5.094267 -16.159459 5.056766 -151.876342 -73.579852 122.336426 -7.267593 -15.539068 35.331225 5.450143 -30.695345 -6.026144 -5.776535 69.018064 -5.767979 4.580383 10.734996 8.289742 -0.325991 -7.545693 0.034181 -12.668855 -37.074611 -0.313831 28.194475 63.935925 23.738779 -8.420693 34.552619 3.629332 0.557068 -18.767359 -7.020199
-8.654679 57.757577 43.643166 -176.825762 -41.461277 -3.006070 -1.319439 26.393311 3.807909 -0.307489 4.523201 0.485238 -0.488894 7.181364 0.765336 -1.199314 21.755750 2.195654 4.539633 11.137087 -2.128890 9.577119 -14.745831 -6.056563 3.816911 -2.766423 -2.122834 19.270276 -21.923864 -23.890449 -171.021740 -80.176807 -152.664564 19.576452 -18.882398 -57.588893 -7.851049 -3.693034 -2.179223 -5.087262 -16.154108 5.047921 -151.880184 -73.585867 122.350408 -7.255826 -15.544216 35.311264 5.441375 -30.704804 -6.011245 -5.763986 69.017100 -5.769639 4.572104 10.735984 8.292509 -0.322811 -7.544850 0.033706 -12.684207 -37.084490 -0.310986 28.199195 63.935081 23.752194 -8.412194 34.560178 3.617874 0.550470 -18.770749 -7.022708
-8.652856 57.757149 43.643724 -176.828887 -41.457553 -3.006907 -1.322359 26.390858 3.810478 -0.309496 4.524516 0.485005 -0.484796 7.179641 0.764278 -1.199083 21.755454 2.195009 4.517808 11.149083 -2.136224 9.543590 -14.727715 -6.070248 3.816392 -2.765236 -2.122654 19.262327 -21.925309 -23.882405 -170.973948 -80.180045 -152.709777 19.582490 -18.880468 -57.577583 -7.846108 -3.684653 -2.179132 -5.080707 -16.150584 5.037056 -151.882312 -73.580892 122.354076 -7.243827 -15.525213 35.315425 5.432562 -30.710356 -5.998447 -5.764974 69.016729 -5.782462 4.570297 10.736949 8.295268 -0.320322 -7.545293 0.033071 -12.706086 -37.095140 -0.310832 28.236951 63.934254 23.788345 -8.375226 34.576120 3.641454 0.525242 -18.780503 -7.037835
-8.651135 57.757277 43.643514 -176.836197 -41.459140 -3.005668 -1.321544 26.392161 3.814292 -0.309088 4.525796 0.484146 -0.482441 7.179031 0.763422 -1.201140 21.754810 2.198766 4.496599 11.160588 -2.148615 9.537165 -14.724643 -6.076044 3.805947 -2.760686 -2.118972 19.276662 -21.926635 -23.890570 -170.962734 -80.183569 -152.734180 19.572458 -18.883220 -57.555483 -7.841058 -3.677171 -2.179853 -5.069364 -16.149268 5.023792 -151.879326 -73.577425 122.354166 -7.243273 -15.527491 35.308644 5.424953 -30.709697 -5.985579 -5.752986 69.015411 -5.780960 4.566376 10.737068 8.294779 -0.319542 -7.544679 0.033339 -12.708052 -37.096415 -0.309477 28.240967 63.934014 23.797224 -8.375535 34.594956 3.651740 0.528436 -18.795219 -7.055853
-8.649111 57.757317 43.643242 -176.843122 -41.460032 -3.008839 -1.317658 26.392573 3.822353 -0.316590 4.522475 0.489293 -0.482980 7.176233 0.764582 -1.201931 21.751682 2.200582 4.477090 11.175015 -2.165020 9.532217 -14.715277 -6.083778 3.810335 -2.753122 -2.115201 19.277352 -21.918112 -23.896242 -171.023692 -80.181781 -152.669277 19.564536 -18.875737 -57.549293 -7.829542 -3.665906 -2.191292 -5.058829 -16.145894 5.012836 -151.885710 -73.581609 122.363641 -7.245669 -15.533054 35.297288 5.420109 -30.709743 -5.973277 -5.754674 69.014598 -5.785312 4.570085 10.736286 8.296452 -0.320070 -7.544053 0.030144 -12.718718 -37.099670 -0.305283 28.239120 63.941307 23.805442 -8.358622 34.601407 3.651686 0.522039 -18.801933 -7.064701
